<?xml version="1.0" encoding="utf-8"?>
<!-- Generator: Adobe Illustrator 22.0.0, SVG Export Plug-In . SVG Version: 6.00 Build 0)  -->
<svg version="1.1" id="Слой_1" xmlns="http://www.w3.org/2000/svg" xmlns:xlink="http://www.w3.org/1999/xlink" x="0px" y="0px"
	 viewBox="0 0 100 100" style="enable-background:new 0 0 100 100;" xml:space="preserve">
<style type="text/css">
	.st0{fill:url(#SVGID_1_);}
	.st1{fill:url(#SVGID_2_);}
	.st2{fill:url(#SVGID_3_);}
	.st3{fill:url(#SVGID_4_);}
	.st4{fill:#FFFFFF;}
	.st5{opacity:0.44;fill:url(#SVGID_5_);}
	.st6{fill:url(#SVGID_6_);}
	.st7{fill:url(#SVGID_7_);}
	.st8{fill:url(#SVGID_8_);}
</style>
<g>
	<linearGradient id="SVGID_1_" gradientUnits="userSpaceOnUse" x1="64.5465" y1="59.5097" x2="44.8243" y2="68.0946">
		<stop  offset="0" style="stop-color:#DFF5FB"/>
		<stop  offset="0.2502" style="stop-color:#D3EEF6"/>
		<stop  offset="1" style="stop-color:#AED8E6"/>
	</linearGradient>
	<ellipse class="st0" cx="49.8" cy="65.9" rx="32.7" ry="16.4"/>
	<linearGradient id="SVGID_2_" gradientUnits="userSpaceOnUse" x1="59.5041" y1="46.6014" x2="-22.633" y2="68.8758">
		<stop  offset="0" style="stop-color:#1570A3"/>
		<stop  offset="1" style="stop-color:#B9D7E4"/>
	</linearGradient>
	<path class="st1" d="M52.4,21.1L52.4,21.1L52.2,21c-0.1,0-0.1,0-0.2,0c-0.1,0-0.1,0-0.2,0l-7.5-2l1.3,1.3
		c-12,0.3-23.5,10-27.3,24.3c-3.8,14,1.1,28,11.1,34.4L28,79.5l6.9,1.8c0.3,0.1,0.6,0.2,0.9,0.3c0.3,0.1,0.6,0.1,0.9,0.2l0.2,0l0,0
		c13.8,3,28.2-7.4,32.6-23.8C73.9,41.5,66.3,25.1,52.4,21.1z"/>
	<g>
		
			<linearGradient id="SVGID_3_" gradientUnits="userSpaceOnUse" x1="106.8592" y1="59.0294" x2="36.131" y2="110.544" gradientTransform="matrix(0.9661 0.2583 -0.2583 0.9661 -12.4489 -49.8444)">
			<stop  offset="0" style="stop-color:#DFF5FB"/>
			<stop  offset="0.2502" style="stop-color:#D3EEF6"/>
			<stop  offset="1" style="stop-color:#AED8E6"/>
		</linearGradient>
		<path class="st2" d="M62.9,56.4c-4.5,16.8-19.6,27.3-33.7,23.5C15.1,76.1,7.3,59.5,11.8,42.7s19.6-27.3,33.7-23.5
			S67.3,39.6,62.9,56.4z"/>
		
			<linearGradient id="SVGID_4_" gradientUnits="userSpaceOnUse" x1="46.8396" y1="104.9168" x2="88.1043" y2="71.7928" gradientTransform="matrix(0.9661 0.2583 -0.2583 0.9661 -12.4489 -49.8444)">
			<stop  offset="0" style="stop-color:#1570A3"/>
			<stop  offset="1" style="stop-color:#B9D7E4"/>
		</linearGradient>
		<path class="st3" d="M57.3,54.9c-3.5,13-15.1,21.1-26.1,18.2c-10.9-2.9-17-15.8-13.5-28.8s15.1-21.1,26.1-18.2
			S60.8,41.9,57.3,54.9z"/>
		<g>
			<path class="st4" d="M35.5,58.1l-1.3,5l-4.7-1.3l1.3-5l-2-0.5l0.9-3.5l2,0.5l0.5-1.8l-2-0.5l0.9-3.5l2,0.5l3.1-11.5l6,1.6
				c1.1,0.3,2.1,0.7,2.9,1.2c0.8,0.5,1.5,1.2,2,2c0.5,0.8,0.8,1.7,0.9,2.8c0.1,1.1,0,2.3-0.4,3.6c-0.4,1.3-0.9,2.4-1.5,3.3
				c-0.6,0.8-1.3,1.5-2.2,1.9c-0.8,0.4-1.7,0.6-2.7,0.6c-1,0-2-0.1-3.1-0.4l-1.2-0.3l-0.5,1.8l5.7,1.5l-0.9,3.5L35.5,58.1z
				 M39.8,41.9l-1.9,7.2l1.2,0.3c1.8,0.5,3.1-0.5,3.7-3c0.3-1.3,0.4-2.2,0.1-2.9C42.6,43,42,42.5,41,42.3L39.8,41.9z"/>
		</g>
	</g>
	
		<linearGradient id="SVGID_5_" gradientUnits="userSpaceOnUse" x1="103.4266" y1="61.3641" x2="55.7977" y2="96.0545" gradientTransform="matrix(0.9661 0.2583 -0.2583 0.9661 -12.4489 -49.8444)">
		<stop  offset="0" style="stop-color:#DFF5FB"/>
		<stop  offset="0.2502" style="stop-color:#D3EEF6"/>
		<stop  offset="1" style="stop-color:#AED8E6"/>
	</linearGradient>
	<path class="st5" d="M45.4,19.2c-4.2-1.1-8.6-1-12.6,0.3c-1.6,3.1-3,6.5-3.9,10.1c-5.4,20.4,2.9,40.6,18.8,47.5
		c7-4.1,12.8-11.4,15.2-20.7C67.3,39.6,59.5,23,45.4,19.2z"/>
	<linearGradient id="SVGID_6_" gradientUnits="userSpaceOnUse" x1="80.4742" y1="54.5185" x2="90.5" y2="54.5185">
		<stop  offset="0" style="stop-color:#F28B6C"/>
		<stop  offset="1" style="stop-color:#C7586B"/>
	</linearGradient>
	<path class="st6" d="M90.5,54.5L90.5,54.5C90.5,54.5,90.4,54.5,90.5,54.5c-2.8,0-5-2.2-5-5c0,0,0-0.1,0-0.1h0c0,0,0,0,0,0
		c0,2.8-2.2,5-5,5c2.8,0,5,2.2,5,5c0,0,0,0,0,0h0C85.5,56.8,87.7,54.5,90.5,54.5z"/>
	<linearGradient id="SVGID_7_" gradientUnits="userSpaceOnUse" x1="75.3647" y1="64.4325" x2="81.3735" y2="64.4325">
		<stop  offset="0" style="stop-color:#F28B6C"/>
		<stop  offset="1" style="stop-color:#C7586B"/>
	</linearGradient>
	<path class="st7" d="M81.4,64.4L81.4,64.4C81.4,64.4,81.3,64.4,81.4,64.4c-1.7,0-3-1.3-3-3c0,0,0,0,0,0h0c0,0,0,0,0,0
		c0,1.7-1.3,3-3,3c1.7,0,3,1.3,3,3c0,0,0,0,0,0h0C78.4,65.8,79.7,64.4,81.4,64.4z"/>
	<linearGradient id="SVGID_8_" gradientUnits="userSpaceOnUse" x1="70.7273" y1="45.1212" x2="86.0108" y2="45.1212">
		<stop  offset="0" style="stop-color:#F28B6C"/>
		<stop  offset="1" style="stop-color:#C7586B"/>
	</linearGradient>
	<path class="st8" d="M86,45.1L86,45.1c0,0-0.1,0-0.1,0c-4.2,0-7.5-3.4-7.5-7.5c0,0,0-0.1,0-0.1h0c0,0,0,0,0,0.1
		c0,4.2-3.4,7.6-7.6,7.6c4.2,0,7.6,3.4,7.6,7.6c0,0,0,0,0,0.1h0C78.3,48.6,81.8,45.1,86,45.1z"/>
</g>
</svg>
